<svg width="206" height="135" viewBox="0 0 206 135" fill="none" xmlns="http://www.w3.org/2000/svg">
<rect width="206" height="135" rx="20" fill="white"/>
<g clip-path="url(#clip0_209_473)">
<path d="M78.8479 73.9523C77.0181 73.6747 75.2329 75.4128 73.8424 78.5835C71.6345 83.6312 70.8558 90.5502 70.8558 96.5585H71.6233C71.6233 90.5502 72.3964 83.6312 74.61 78.5835C75.8001 75.857 77.2907 74.1911 78.8479 73.9523Z" fill="#585858"/>
<path fill-rule="evenodd" clip-rule="evenodd" d="M76.9402 74.6632C75.5776 75.5794 74.5709 77.5174 74.0648 78.678C71.7957 83.87 71.1171 90.6946 71.1005 96.3309H71.3897C71.4064 90.6335 72.0904 83.7534 74.393 78.5003C74.9102 77.3231 75.7667 75.6905 76.9458 74.6632H76.9402Z" fill="white"/>
<path d="M88.5642 96.5586C88.5642 90.467 87.5909 81.9321 84.532 76.6789C81.2729 71.0816 77.4019 72.442 74.788 77.9284C72.2963 83.1593 71.4176 90.3337 71.4176 96.5586H72.352C72.352 91.6164 72.9749 86.0357 74.4988 81.6322V86.0524C74.7045 86.0912 74.8992 86.1301 75.0939 86.169V80.0496C75.2218 79.3666 76.6511 77.1343 76.9515 76.7511V86.5355C77.135 86.5688 77.3241 86.6077 77.5076 86.6465V76.1403C78.0471 75.5795 78.6255 75.1963 79.2095 74.9853V87.3462C79.3819 87.3795 79.5432 87.4128 79.7156 87.4462V74.8576C80.2217 74.7687 80.7445 75.0242 81.2729 75.2185V87.8793C81.423 87.8404 81.5732 87.8015 81.7345 87.7627V75.2185C82.235 75.4906 82.7133 75.8904 83.1749 76.4013V88.1514C83.3195 88.1791 83.4586 88.2069 83.5976 88.2347V76.9122C84.0704 77.5341 84.5097 78.2782 84.9269 79.1223V88.4568C85.0603 88.4846 85.1938 88.5068 85.3217 88.5345V79.983C85.5164 80.455 86.4674 83.0093 86.5453 83.6091V88.8788C86.6677 88.901 86.79 88.9232 86.9124 88.951V85.0806C87.7244 88.7178 88.097 92.6882 88.097 96.5586H88.5697H88.5642Z" fill="#585858"/>
<path d="M25.7339 96.5585C26.0787 85.0694 28.9986 72.0032 36.0174 63.6071C39.4656 59.4813 43.7425 56.777 48.6034 57.5877C42.5635 58.5873 37.8027 64.7844 35.033 70.3596L35.0441 70.0541C30.7004 77.4674 28.6482 87.5904 28.3757 96.564H25.7394L25.7339 96.5585Z" fill="#585858"/>
<path fill-rule="evenodd" clip-rule="evenodd" d="M44.8217 58.2595C41.4959 58.9814 38.6817 61.3581 36.507 63.9624C29.4382 72.4196 26.7853 85.4191 26.3793 95.9642H27.7641C28.0978 87.3904 30.0444 77.3673 34.4937 69.7764L35.7395 67.644V67.7662C37.8863 64.1068 40.9675 60.2641 44.8217 58.2595Z" fill="white"/>
<path d="M28.0701 96.5584C28.0701 89.3284 29.1157 82.5649 30.9399 76.7343C32.7085 71.098 35.2057 66.5168 38.1256 63.185C40.8118 60.0087 43.8485 58.0097 46.9686 57.2767C49.8718 56.5937 52.8417 56.9879 55.7171 58.4983C58.3755 59.8921 60.7448 62.1411 62.7581 64.9176C64.6546 67.533 66.2842 70.6704 67.5745 74.1022C68.8036 77.3784 69.7825 80.9934 70.4276 84.7861C71.0561 88.4955 71.4121 92.4603 71.4121 96.5584H70.4388C70.4388 93.3599 70.2163 90.2502 69.7992 87.3071C69.3765 84.3196 68.7425 81.4488 67.9471 78.7778V84.514C67.6802 84.4585 67.4188 84.4029 67.163 84.353V76.4122C67.0295 76.0457 66.896 75.6792 66.7625 75.3183C66.0896 73.5746 65.3332 71.9254 64.5045 70.415V83.6922C64.2208 83.6311 63.9261 83.57 63.6313 83.5089V68.9268C62.7136 67.4553 61.7181 66.117 60.628 64.9453V82.5205C60.3054 82.4538 59.9995 82.3872 59.6603 82.3206V63.968C58.5813 62.9629 57.4801 62.4576 56.251 61.8024C56.251 65.1619 56.2565 68.5214 56.2565 71.8754V81.9485C55.895 81.7653 55.528 81.582 55.1665 81.3877V60.9361C53.8706 60.3752 52.5914 60.0698 51.2955 59.9865V80.5769C50.8673 80.4881 50.4391 80.3992 50.0219 80.3104V59.9865C48.5425 60.0865 47.0298 60.4919 45.6115 61.2193V79.4053C45.1166 79.2998 44.6216 79.1998 44.121 79.0943V62.0467C42.6249 63.0296 41.1789 64.3567 39.8052 65.9948C39.5271 66.3502 39.2379 66.7167 38.9765 67.1054C38.9765 70.7482 38.9709 74.3854 38.9709 78.0226C38.4203 77.906 37.8586 77.7893 37.2691 77.6672V69.7153C35.3447 72.9583 33.8041 76.9175 32.6863 81.4265C31.535 86.0466 30.9176 91.172 30.9176 96.5584H28.059H28.0701Z" fill="#585858"/>
<path fill-rule="evenodd" clip-rule="evenodd" d="M98.0078 90.889H92.2904L20.2614 81.0547L20 80.7604V77.8617L20.2836 77.5618L39.7216 76.5123L39.8106 76.5179L98.0856 89.8783L98.3081 90.1671V90.5891L98.0078 90.889Z" fill="#585858"/>
<path fill-rule="evenodd" clip-rule="evenodd" d="M39.2321 80.5491L20.5116 80.6046V77.9614L39.2321 77.1451V80.5491Z" fill="white"/>
<path fill-rule="evenodd" clip-rule="evenodd" d="M39.9442 77.2621L98.019 90.1505V90.517L39.9442 80.7938V77.2621Z" fill="white"/>
<path fill-rule="evenodd" clip-rule="evenodd" d="M39.7162 79.6608L98.108 90.4002L97.9968 90.4113L39.605 80.0828L39.7162 79.6608Z" fill="#585858"/>
<path fill-rule="evenodd" clip-rule="evenodd" d="M39.716 78.417L98.1078 90.2559L98.0967 90.317L39.6993 78.8834L39.716 78.417Z" fill="#585858"/>
<path d="M89.2815 73.1249C87.4517 72.8362 85.6609 74.6409 84.276 77.9282C82.0681 83.1591 81.2894 90.3336 81.2894 96.5585H82.0569C82.0569 90.328 82.83 83.1591 85.0435 77.9282C86.2393 75.1018 87.7243 73.3748 89.2815 73.1249Z" fill="#585858"/>
<path fill-rule="evenodd" clip-rule="evenodd" d="M87.374 73.858C86.0114 74.8076 85.0048 76.8178 84.4987 78.0228C82.2239 83.4036 81.551 90.4781 81.5343 96.3198H81.8235C81.8402 90.4114 82.5298 83.2814 84.8268 77.834C85.344 76.6123 86.2005 74.9242 87.3796 73.858H87.374Z" fill="white"/>
<path d="M97.1291 96.5586C97.1291 90.467 96.2671 81.9321 93.5585 76.6789C90.672 71.0816 87.2461 72.442 84.9324 77.9284C82.7244 83.1593 81.9458 90.3337 81.9458 96.5586H82.7745C82.7745 91.6164 83.3251 86.0357 84.6766 81.6322V87.0019C84.8545 87.0408 85.0325 87.0797 85.2049 87.1185V80.0496C85.3217 79.3666 86.5842 77.1343 86.8512 76.7511V87.485C87.0125 87.5239 87.1849 87.5572 87.3462 87.5961V76.1403C87.8245 75.5795 88.3361 75.1963 88.8534 74.9853V87.9626C89.0035 87.9959 89.1481 88.0292 89.3039 88.0625V74.8576C89.7488 74.7687 90.216 75.0242 90.6832 75.2185V88.4068L91.0892 88.4235V75.2296C91.5285 75.5017 91.9568 75.9015 92.3628 76.4124V88.7844C92.4907 88.8122 92.6131 88.8399 92.7354 88.8677V76.9233C93.1525 77.5452 93.5419 78.2893 93.9089 79.1334V89.1065C94.0257 89.1343 94.1481 89.1565 94.2593 89.1842V79.9996C94.4317 80.4716 95.2715 83.026 95.3438 83.6257V89.4008C95.4551 89.423 95.5607 89.4452 95.6664 89.473V85.0972C96.3839 88.7344 96.712 92.7048 96.712 96.5752H97.1291V96.5586Z" fill="#585858"/>
<path d="M43.5704 96.5584C43.5704 89.3284 44.4937 82.5649 46.1121 76.7343C47.6749 71.098 49.8885 66.5168 52.4746 63.185C54.855 60.0087 57.5413 58.0097 60.3055 57.2767C62.8749 56.5937 65.5056 56.9879 68.0528 58.4983C70.411 59.8921 72.5077 62.1411 74.2875 64.9176C75.9671 67.533 77.4131 70.6704 78.5532 74.1022C79.6433 77.3784 80.5054 80.9934 81.0782 84.7861C81.6344 88.4955 81.9514 92.4603 81.9514 96.5584H81.0894C81.0894 93.3599 80.8947 90.2502 80.5276 87.3071C80.1494 84.3196 79.5877 81.4488 78.8869 78.7778V85.6468C78.6478 85.5913 78.4198 85.5357 78.1973 85.4858V76.4122C78.0805 76.0457 77.9581 75.6792 77.8414 75.3183C77.2463 73.5746 76.5733 71.9254 75.8392 70.415V85.0138C75.5889 84.9527 75.3275 84.8916 75.0661 84.8305V68.9324C74.2541 67.4608 73.3753 66.1226 72.4076 64.9509V84.2697C72.124 84.203 71.8515 84.1364 71.5511 84.0698V63.968C70.6001 62.9629 69.6212 62.4576 68.5311 61.8024C68.5311 68.5159 68.5367 76.6954 68.5367 83.4145C68.2141 83.2313 67.8916 83.3312 67.569 83.1424V60.9361C66.4233 60.3752 65.2887 60.0698 64.143 59.9865V82.4705C63.7648 82.3817 63.3866 82.2928 63.014 82.204V59.9865C61.707 60.0865 60.3666 60.4919 59.1097 61.2193C59.1097 67.2831 59.1709 75.3794 59.1709 81.4376C58.7315 81.3321 58.2921 81.2322 57.8528 81.1267C57.8528 75.446 57.7916 67.7274 57.7916 62.0467C56.4679 63.0296 55.1832 64.3567 53.9707 65.9948C53.726 66.3502 53.4702 66.7167 53.2366 67.1054C53.2366 70.7482 53.2922 76.4233 53.2922 80.0605C52.8028 79.9439 52.3078 79.8273 51.785 79.7051C51.785 77.0564 51.7238 72.3696 51.7238 69.7209C50.022 72.9638 48.6593 76.9231 47.6638 81.4321C46.646 86.0522 46.101 91.1776 46.101 96.5639H43.5704V96.5584Z" fill="#585858"/>
<path d="M41.7184 96.5583C41.7184 84.9249 44.1377 71.6921 50.6226 63.185C53.8094 59.0092 57.8305 56.2716 62.5134 57.0934C56.7515 58.1096 52.369 64.3844 49.8718 70.0263V69.7153C45.923 77.2229 44.2489 87.4737 44.2489 96.5583H41.7184Z" fill="#585858"/>
<path fill-rule="evenodd" clip-rule="evenodd" d="M58.9093 57.7766C55.7447 58.5041 53.114 60.914 51.1007 63.5517C44.5658 72.1199 42.3967 85.2805 42.3188 95.9588H43.6425C43.7093 87.274 45.2888 77.1287 49.3321 69.4378L50.4667 67.2833V67.411C52.4188 63.7016 55.2664 59.809 58.9037 57.7822L58.9093 57.7766Z" fill="white"/>
</g>
<path d="M113.081 45.3648C112.638 45.0053 112.196 44.7426 111.753 44.5767C111.311 44.3969 110.882 44.307 110.467 44.307C109.942 44.307 109.513 44.4315 109.182 44.6804C108.85 44.9292 108.684 45.2542 108.684 45.6552C108.684 45.9317 108.767 46.1598 108.933 46.3396C109.099 46.5193 109.313 46.6783 109.576 46.8166C109.852 46.941 110.156 47.0517 110.488 47.1484C110.834 47.2452 111.173 47.3489 111.504 47.4595C112.832 47.902 113.8 48.4965 114.408 49.2432C115.03 49.976 115.341 50.937 115.341 52.1261C115.341 52.928 115.203 53.6539 114.927 54.3038C114.664 54.9536 114.27 55.5136 113.744 55.9837C113.233 56.44 112.597 56.7926 111.836 57.0415C111.09 57.3042 110.239 57.4355 109.285 57.4355C107.308 57.4355 105.476 56.8479 103.789 55.6726L105.531 52.3957C106.14 52.9349 106.741 53.3359 107.336 53.5986C107.93 53.8613 108.518 53.9927 109.099 53.9927C109.762 53.9927 110.253 53.8406 110.571 53.5364C110.903 53.2322 111.069 52.8865 111.069 52.4994C111.069 52.2643 111.027 52.0639 110.944 51.8979C110.862 51.7182 110.723 51.5592 110.53 51.4209C110.336 51.2688 110.08 51.1305 109.762 51.0061C109.458 50.8817 109.085 50.7434 108.642 50.5913C108.117 50.4254 107.598 50.2456 107.087 50.0521C106.589 49.8447 106.14 49.575 105.739 49.2432C105.352 48.9114 105.034 48.4965 104.785 47.9988C104.55 47.4872 104.432 46.8443 104.432 46.07C104.432 45.2957 104.557 44.5974 104.805 43.9752C105.068 43.3392 105.428 42.7999 105.884 42.3575C106.354 41.9012 106.921 41.5486 107.585 41.2997C108.262 41.0508 109.016 40.9264 109.845 40.9264C110.62 40.9264 111.428 41.037 112.272 41.2582C113.115 41.4656 113.924 41.7768 114.698 42.1916L113.081 45.3648ZM129.535 44.8048V57H125.47V44.8048H122.131V41.3619H132.874V44.8048H129.535ZM149.18 44.8048H144.347V47.4181H148.91V50.8609H144.347V53.5571H149.18V57H140.282V41.3619H149.18V44.8048ZM166.608 44.8048H161.776V47.4181H166.338V50.8609H161.776V53.5571H166.608V57H157.711V41.3619H166.608V44.8048ZM179.204 41.3619V53.5571H184.078V57H175.139V41.3619H179.204Z" fill="black"/>
<path d="M106.292 89.5766V96.7239H104.434V89.5766H106.292ZM110.344 96.7239V89.5766H112.202L115.634 93.9465V89.5766H117.482V96.7239H115.634L112.202 92.354V96.7239H110.344ZM125.465 91.4061C125.262 91.2418 125.06 91.1217 124.858 91.0459C124.656 90.9638 124.46 90.9227 124.27 90.9227C124.03 90.9227 123.834 90.9795 123.683 91.0933C123.531 91.207 123.455 91.3556 123.455 91.5388C123.455 91.6652 123.493 91.7695 123.569 91.8516C123.645 91.9338 123.743 92.0065 123.863 92.0696C123.989 92.1265 124.128 92.1771 124.28 92.2213C124.438 92.2655 124.593 92.3129 124.744 92.3635C125.351 92.5657 125.793 92.8375 126.071 93.1787C126.356 93.5136 126.498 93.9528 126.498 94.4963C126.498 94.8628 126.435 95.1946 126.308 95.4916C126.188 95.7886 126.008 96.0445 125.768 96.2594C125.534 96.4679 125.243 96.6291 124.896 96.7428C124.555 96.8629 124.166 96.9229 123.73 96.9229C122.826 96.9229 121.989 96.6544 121.218 96.1172L122.014 94.6195C122.292 94.866 122.567 95.0492 122.839 95.1693C123.111 95.2894 123.379 95.3494 123.645 95.3494C123.948 95.3494 124.172 95.2799 124.318 95.1409C124.469 95.0018 124.545 94.8439 124.545 94.6669C124.545 94.5595 124.526 94.4679 124.488 94.392C124.45 94.3099 124.387 94.2372 124.299 94.174C124.21 94.1045 124.093 94.0413 123.948 93.9844C123.809 93.9275 123.638 93.8644 123.436 93.7948C123.196 93.719 122.959 93.6369 122.725 93.5484C122.498 93.4536 122.292 93.3304 122.109 93.1787C121.932 93.027 121.787 92.8375 121.673 92.61C121.566 92.3761 121.512 92.0823 121.512 91.7284C121.512 91.3745 121.569 91.0554 121.683 90.771C121.803 90.4803 121.967 90.2339 122.175 90.0316C122.39 89.8231 122.649 89.662 122.953 89.5482C123.262 89.4345 123.607 89.3776 123.986 89.3776C124.34 89.3776 124.709 89.4281 125.095 89.5292C125.48 89.624 125.85 89.7662 126.204 89.9558L125.465 91.4061ZM132.086 89.5766V93.4631C132.086 93.6716 132.092 93.8865 132.105 94.1076C132.124 94.3225 132.171 94.5184 132.247 94.6954C132.329 94.8723 132.455 95.0176 132.626 95.1314C132.797 95.2388 133.037 95.2925 133.346 95.2925C133.656 95.2925 133.893 95.2388 134.057 95.1314C134.228 95.0176 134.354 94.8723 134.436 94.6954C134.519 94.5184 134.566 94.3225 134.579 94.1076C134.598 93.8865 134.607 93.6716 134.607 93.4631V89.5766H136.456V93.719C136.456 94.8312 136.2 95.6433 135.688 96.1551C135.182 96.667 134.402 96.9229 133.346 96.9229C132.291 96.9229 131.507 96.667 130.996 96.1551C130.484 95.6433 130.228 94.8312 130.228 93.719V89.5766H132.086ZM142.375 92.7711H142.725C143.092 92.7711 143.373 92.6953 143.569 92.5436C143.765 92.3919 143.863 92.1739 143.863 91.8895C143.863 91.6052 143.765 91.3872 143.569 91.2355C143.373 91.0838 143.092 91.008 142.725 91.008H142.375V92.7711ZM146.46 96.7239H144.147L142.375 93.9749V96.7239H140.517V89.5766H143.408C143.806 89.5766 144.153 89.6367 144.45 89.7567C144.747 89.8705 144.991 90.0285 145.18 90.2307C145.376 90.4329 145.522 90.6667 145.616 90.9322C145.717 91.1976 145.768 91.4819 145.768 91.7853C145.768 92.3287 145.635 92.7711 145.37 93.1123C145.111 93.4473 144.725 93.6748 144.213 93.7948L146.46 96.7239ZM153.683 94.0697L152.849 91.6905L152.015 94.0697H153.683ZM154.176 95.4821H151.522L151.095 96.7239H149.114L151.835 89.5766H153.863L156.584 96.7239H154.602L154.176 95.4821ZM159.956 96.7239V89.5766H161.814L165.245 93.9465V89.5766H167.094V96.7239H165.245L161.814 92.354V96.7239H159.956ZM176.392 91.9654C175.962 91.4409 175.431 91.1786 174.799 91.1786C174.521 91.1786 174.262 91.2292 174.022 91.3303C173.788 91.4314 173.586 91.5704 173.415 91.7474C173.245 91.918 173.109 92.1234 173.008 92.3635C172.913 92.6036 172.865 92.8627 172.865 93.1408C172.865 93.4252 172.913 93.6874 173.008 93.9275C173.109 94.1677 173.245 94.3762 173.415 94.5532C173.592 94.7301 173.797 94.8691 174.031 94.9702C174.265 95.0714 174.518 95.1219 174.79 95.1219C175.384 95.1219 175.918 94.8691 176.392 94.3636V96.5627L176.202 96.6291C175.918 96.7302 175.652 96.8029 175.406 96.8471C175.159 96.8977 174.916 96.9229 174.676 96.9229C174.183 96.9229 173.709 96.8313 173.254 96.648C172.805 96.4585 172.407 96.1962 172.06 95.8613C171.718 95.52 171.443 95.1188 171.235 94.6574C171.026 94.1898 170.922 93.6811 170.922 93.1313C170.922 92.5815 171.023 92.0791 171.225 91.6241C171.434 91.1628 171.709 90.7679 172.05 90.4392C172.398 90.1043 172.799 89.8452 173.254 89.662C173.709 89.4724 174.186 89.3776 174.685 89.3776C174.97 89.3776 175.248 89.4092 175.519 89.4724C175.798 89.5292 176.088 89.6209 176.392 89.7473V91.9654ZM184.193 91.1502H181.984V92.3445H184.07V93.9181H181.984V95.1503H184.193V96.7239H180.126V89.5766H184.193V91.1502Z" fill="black"/>
<path d="M116.075 71.0606C115.135 69.913 113.974 69.3392 112.591 69.3392C111.983 69.3392 111.416 69.4498 110.89 69.671C110.379 69.8923 109.936 70.1965 109.563 70.5836C109.19 70.9569 108.892 71.4063 108.671 71.9317C108.464 72.4571 108.36 73.024 108.36 73.6324C108.36 74.2546 108.464 74.8284 108.671 75.3538C108.892 75.8792 109.19 76.3355 109.563 76.7227C109.95 77.1098 110.399 77.414 110.911 77.6352C111.423 77.8565 111.976 77.9671 112.57 77.9671C113.87 77.9671 115.038 77.414 116.075 76.3079V81.1196L115.661 81.2648C115.038 81.486 114.458 81.645 113.918 81.7418C113.379 81.8524 112.847 81.9077 112.321 81.9077C111.243 81.9077 110.206 81.7072 109.21 81.3062C108.229 80.8914 107.358 80.3176 106.597 79.5848C105.85 78.8382 105.249 77.9602 104.793 76.9508C104.336 75.9276 104.108 74.8146 104.108 73.6117C104.108 72.4087 104.33 71.3095 104.772 70.314C105.228 69.3046 105.83 68.4405 106.576 67.7215C107.337 66.9886 108.215 66.4218 109.21 66.0208C110.206 65.606 111.25 65.3986 112.342 65.3986C112.964 65.3986 113.573 65.4677 114.167 65.606C114.776 65.7304 115.412 65.9309 116.075 66.2074V71.0606ZM128.312 65.8341V81.4722H124.247V65.8341H128.312ZM143.11 69.277V81.4722H139.045V69.277H135.706V65.8341H146.449V69.277H143.11ZM158.645 73.9642L152.941 65.8341H157.794L160.698 70.1066L163.581 65.8341H168.434L162.71 73.9642V81.4722H158.645V73.9642Z" fill="black"/>
<defs>
<clipPath id="clip0_209_473">
<rect width="78.3081" height="39.6093" fill="white" transform="translate(20 56.949)"/>
</clipPath>
</defs>
</svg>
