<svg width="206" height="135" viewBox="0 0 206 135" fill="none" xmlns="http://www.w3.org/2000/svg">
<rect width="206" height="135" rx="20" fill="white"/>
<path d="M56.7196 47.6611H65.0382C68.3657 47.6611 70.843 48.033 72.7548 48.9451C75.4096 50.1952 77.2149 52.4253 77.2149 55.8376C77.2149 58.6758 75.9407 60.8719 73.3918 62.291C71.4096 63.406 68.6837 63.9469 65.1792 63.9469H64.011V72.1239H56.719V47.6611H56.7196ZM65.3213 58.6763C66.9145 58.6763 68.0116 58.5413 68.6132 58.2372C69.4622 57.832 69.9229 57.055 69.9229 55.9738C69.9229 54.8927 69.4273 54.0478 68.5072 53.642C67.8346 53.338 66.9495 53.2029 65.1087 53.2029H64.011V58.6769H65.3207L65.3213 58.6763Z" fill="black"/>
<path d="M94.7353 47C102.37 47 108.289 52.6686 108.289 59.8923C108.289 67.116 102.37 72.7851 94.7353 72.7851C87.1001 72.7851 81.1819 67.1166 81.1819 59.8923C81.1819 52.668 87.1007 47 94.7353 47ZM94.7353 66.391C98.308 66.391 101.075 63.5218 101.075 59.8923C101.075 56.2628 98.3075 53.3941 94.7353 53.3941C91.1632 53.3941 88.3965 56.2628 88.3965 59.8923C88.3965 63.5218 91.1637 66.391 94.7353 66.391Z" fill="black"/>
<path d="M114.24 47.6611H121.21V66.2448H131.43V72.1239H114.24V47.6611Z" fill="black"/>
<path d="M137.38 47.6611H144.351V66.2448H154.57V72.1239H137.38V47.6611Z" fill="black"/>
<path d="M43.1096 73.4463H50.7686L49.7607 70.8721V70.8703L44.7259 57.9969L42.639 52.6595L40.4258 47H33.3411L31.1273 52.6595L28.3972 59.6436L24.0073 70.8703V70.8721L23 73.4463H30.6584L36.884 57.639L43.1096 73.4463Z" fill="black"/>
<path d="M36.8843 68.157C37.6146 68.157 38.2066 67.417 38.2066 66.5041C38.2066 65.5912 37.6146 64.8512 36.8843 64.8512C36.154 64.8512 35.562 65.5912 35.562 66.5041C35.562 67.417 36.154 68.157 36.8843 68.157Z" fill="black"/>
<path fill-rule="evenodd" clip-rule="evenodd" d="M39.5283 77.7976C39.5703 80.6928 37.3626 85.084 37.2623 85.2765L36.8943 86.0083L36.521 85.2735C36.4197 85.081 34.2157 80.4773 34.2398 77.815C34.2382 77.2103 34.3102 76.6259 34.4456 76.0909H39.3256C39.4553 76.6133 39.5272 77.1886 39.5288 77.7982L39.5283 77.7976Z" fill="black"/>
<path fill-rule="evenodd" clip-rule="evenodd" d="M170.438 47C163.511 47 157.876 52.6349 157.876 59.562C157.876 66.489 163.511 72.124 170.438 72.124C177.365 72.124 183 66.489 183 59.562C183 52.6349 177.364 47 170.438 47ZM170.438 70.4694C170.287 70.4694 170.137 70.4642 169.987 70.458C174.308 68.7268 177.361 64.5017 177.361 59.5614C177.361 54.6211 174.308 50.3961 169.987 48.6649C170.137 48.6586 170.287 48.6534 170.438 48.6534C176.452 48.6534 181.346 53.5468 181.346 59.5608C181.346 65.5748 176.452 70.4682 170.438 70.4682V70.4694Z" fill="black"/>
<path d="M60.6667 76.7522L60.7253 76.8088L63.9917 84.6295L63.933 84.6861H63.3104L63.2517 84.6295L62.2881 82.3401H58.4226L57.4709 84.6295L57.4122 84.6861H56.7777L56.719 84.6295L59.9854 76.8088L60.0441 76.7522H60.6667ZM58.7045 81.6825H62.0181L60.3613 77.6247L58.7045 81.6825Z" fill="black"/>
<path d="M68.0562 76.7522C70.3045 76.7522 71.9256 78.5091 71.9256 80.7193C71.9256 82.9295 70.3045 84.6861 68.0562 84.6861H66.0275L65.9752 84.6295V76.8088L66.0275 76.7522H68.0562ZM66.5919 84.0285H68.0559C69.8651 84.0285 71.2247 82.5665 71.2247 80.719C71.2247 78.8714 69.8651 77.4094 68.0559 77.4094H66.5919V84.0285Z" fill="black"/>
<path d="M74.4951 76.7522L74.5447 76.8088L76.8893 83.7791L79.2338 76.8088L79.2835 76.7522H79.8098L79.8595 76.8088L77.1971 84.6295L77.1475 84.6861H76.6211L76.5714 84.6295L73.9091 76.8088L73.9587 76.7522H74.4951Z" fill="black"/>
<path d="M83.1092 76.7522L83.1652 76.8088V84.6295L83.1092 84.6861H82.56L82.504 84.6295V76.8088L82.56 76.7522H83.1092Z" fill="black"/>
<path d="M88.6767 78.2087C88.3283 77.7198 87.9361 77.4154 87.3264 77.4154C86.6729 77.4154 86.1503 77.9263 86.1503 78.6001C86.1503 80.0457 89.7768 80.024 89.7768 82.3496C89.7768 83.6429 88.7311 84.6861 87.4355 84.6861C86.3465 84.6861 85.5298 84.0882 85.1487 83.1103L85.6059 82.7732H85.7147C86.0415 83.5883 86.6729 84.0229 87.4355 84.0229C88.3503 84.0229 89.0472 83.2948 89.0472 82.3492C89.0472 80.6102 85.4317 80.6539 85.4317 78.5998C85.4317 77.5782 86.2704 76.7522 87.3267 76.7522C88.1978 76.7522 88.8513 77.2412 89.2324 77.8933L88.7859 78.2084H88.6767V78.2087Z" fill="black"/>
<path d="M100.355 80.7191C100.355 82.9038 98.4274 84.6861 96.0578 84.6861C93.6881 84.6861 91.7603 82.9038 91.7603 80.7191C91.7603 78.5345 93.6885 76.7522 96.0578 76.7522C98.427 76.7522 100.355 78.5348 100.355 80.7191ZM92.5384 80.7191C92.5384 82.5451 94.1295 84.0229 96.0578 84.0229C97.9974 84.0229 99.5889 82.5447 99.5889 80.7191C99.5889 78.8932 97.9978 77.415 96.0578 77.415C94.1299 77.4154 92.5384 78.8932 92.5384 80.7191Z" fill="black"/>
<path d="M104.515 76.7522C106.254 76.7522 107.349 77.6022 107.349 78.9058C107.349 80.1073 106.19 80.7759 105.159 80.9458L108.289 84.6295L108.225 84.6861H107.388L107.323 84.6295L104.258 81.0479H103.099V84.6295L103.034 84.6861H102.403L102.339 84.6295V76.8088L102.403 76.7522H104.515ZM103.099 80.3904H104.387C105.481 80.3904 106.486 79.9371 106.486 78.9054C106.486 77.9533 105.752 77.4094 104.516 77.4094H103.099V80.3904H103.099Z" fill="black"/>
<path d="M120.035 78.2304C119.343 77.5999 118.382 77.4154 117.504 77.4154C115.666 77.4154 114.271 78.8936 114.271 80.7195C114.271 82.5781 115.717 84.0233 117.556 84.0233C118.238 84.0233 119.023 83.8168 119.591 83.4364V81.0889H117.762L117.711 81.0346V80.513L117.762 80.4587H120.138L120.19 80.513V83.8168C119.415 84.4146 118.486 84.6861 117.556 84.6861C115.335 84.6861 113.578 82.9471 113.578 80.7191C113.578 78.5455 115.283 76.7522 117.504 76.7522C118.485 76.7522 119.415 76.9261 120.087 77.4587V78.1761L120.035 78.2304Z" fill="black"/>
<path fill-rule="evenodd" clip-rule="evenodd" d="M119.974 78.1761C119.89 78.1047 119.803 78.0395 119.713 77.9799C119.6 77.9051 119.482 77.8392 119.36 77.7814C118.782 77.5069 118.123 77.4154 117.504 77.4154C117.505 77.4154 117.504 77.4154 117.504 77.4154C115.666 77.4157 114.271 78.8936 114.271 80.7191C114.271 80.719 114.271 80.7193 114.271 80.7191C114.271 82.5776 115.717 84.0231 117.556 84.0233C117.556 84.0233 117.556 84.0233 117.556 84.0233C118.188 84.0233 118.909 83.8457 119.464 83.5167C119.507 83.4909 119.55 83.4641 119.591 83.4364V81.0889H117.762L117.711 81.0346V80.513L117.762 80.4587H120.138L120.19 80.513V83.8168C120.106 83.8818 120.02 83.9429 119.932 84.0003C119.213 84.4704 118.385 84.686 117.556 84.6861C117.556 84.6861 117.556 84.6861 117.556 84.6861C115.335 84.6861 113.579 82.9473 113.578 80.7195C113.578 80.7196 113.578 80.7194 113.578 80.7195C113.578 78.5458 115.283 76.7522 117.504 76.7522C117.504 76.7522 117.504 76.7522 117.504 76.7522C118.485 76.7523 119.415 76.9262 120.087 77.4587V78.1761L120.035 78.2304C120.015 78.2119 119.994 78.1938 119.974 78.1761Z" fill="black"/>
<path d="M125.189 76.7522C126.541 76.7522 127.393 77.6022 127.393 78.9058C127.393 80.1073 126.491 80.7759 125.69 80.9458L128.124 84.6295L128.074 84.6861H127.423L127.373 84.6295L124.989 81.0479H124.087V84.6295L124.037 84.6861H123.546L123.496 84.6295V76.8088L123.546 76.7522H125.189ZM124.087 80.3904H125.089C125.94 80.3904 126.722 79.9371 126.722 78.9054C126.722 77.9533 126.151 77.4094 125.189 77.4094H124.087V80.3904H124.087Z" fill="black"/>
<path fill-rule="evenodd" clip-rule="evenodd" d="M124.087 77.4094H125.189C126.15 77.4094 126.722 77.9533 126.722 78.9054C126.722 78.9055 126.722 78.9053 126.722 78.9054C126.721 79.7292 126.223 80.1845 125.588 80.3343C125.532 80.3475 125.475 80.3584 125.417 80.3669C125.31 80.3826 125.2 80.3904 125.089 80.3904H124.087V77.4094ZM123.496 76.8088L123.546 76.7522H125.189C125.189 76.7522 125.189 76.7522 125.189 76.7522C126.541 76.7523 127.393 77.6021 127.393 78.9054C127.393 78.9053 127.393 78.9055 127.393 78.9054C127.393 79.7584 126.938 80.3432 126.388 80.6712C126.194 80.7866 125.989 80.8703 125.787 80.9228C125.755 80.9313 125.722 80.9389 125.69 80.9458L128.124 84.6295L128.074 84.6861H127.423L127.373 84.6295L124.989 81.0479H124.087L124.087 84.6295L124.037 84.6861H123.546L123.496 84.6295V76.8088Z" fill="black"/>
<path d="M138.041 80.7191C138.041 82.9038 136.113 84.6861 133.744 84.6861C131.374 84.6861 129.446 82.9038 129.446 80.7191C129.446 78.5345 131.375 76.7522 133.744 76.7522C136.113 76.7525 138.041 78.5348 138.041 80.7191ZM130.224 80.7191C130.224 82.5451 131.816 84.0229 133.744 84.0229C135.683 84.0229 137.275 82.5447 137.275 80.7191C137.275 78.8932 135.683 77.415 133.744 77.415C131.816 77.4154 130.224 78.8936 130.224 80.7191Z" fill="black"/>
<path fill-rule="evenodd" clip-rule="evenodd" d="M133.744 77.415C131.816 77.4154 130.224 78.8936 130.224 80.7191C130.224 82.5451 131.816 84.0229 133.744 84.0229C135.683 84.0229 137.275 82.5447 137.275 80.7191C137.275 78.8932 135.683 77.415 133.744 77.415C133.744 77.415 133.744 77.415 133.744 77.415ZM133.744 84.6861C136.113 84.6861 138.041 82.9038 138.041 80.7191C138.041 78.5348 136.113 76.7525 133.744 76.7522C133.744 76.7522 133.744 76.7522 133.744 76.7522C131.374 76.7523 129.446 78.5345 129.446 80.7191C129.446 82.9038 131.374 84.6861 133.744 84.6861Z" fill="black"/>
<path d="M140.703 76.7522L140.766 76.8076V80.9686C140.766 82.9215 141.959 84.009 143.667 84.009C145.363 84.009 146.556 82.9215 146.556 80.9686V76.8076L146.619 76.7522H147.235L147.297 76.8076V81.0798C147.297 83.3544 145.803 84.6861 143.667 84.6861C141.532 84.6861 140.025 83.3544 140.025 81.0798V76.8076L140.087 76.7522H140.703Z" fill="black"/>
<path fill-rule="evenodd" clip-rule="evenodd" d="M140.766 76.8076V80.9686C140.766 81.006 140.766 81.043 140.767 81.0798C140.812 82.9628 141.992 84.009 143.667 84.009C145.331 84.009 146.511 82.9628 146.555 81.0798C146.556 81.043 146.556 81.006 146.556 80.9686V76.8076L146.619 76.7522H147.235L147.297 76.8076V81.0798C147.297 83.3544 145.803 84.6861 143.667 84.6861C141.532 84.6861 140.025 83.3544 140.025 81.0798V76.8076L140.087 76.7522H140.703L140.766 76.8076Z" fill="black"/>
<path d="M151.584 76.7522C153.486 76.7522 154.57 77.7158 154.57 79.0756C154.57 80.4359 153.486 81.388 151.584 81.388H150V84.6295L149.939 84.6861H149.342L149.281 84.6295V76.8088L149.33 76.7522H151.584ZM150 80.7304H151.584C152.949 80.7304 153.766 80.1069 153.766 79.0756C153.766 78.0444 152.95 77.4094 151.584 77.4094H150V80.7304Z" fill="black"/>
<path fill-rule="evenodd" clip-rule="evenodd" d="M150 80.7304H151.584C152.949 80.7304 153.766 80.1069 153.766 79.0756C153.766 78.0444 152.95 77.4094 151.584 77.4094H150V80.7304ZM150 81.388V84.6295L149.939 84.6861H149.342L149.281 84.6295V76.8088L149.33 76.7522H151.584C153.486 76.7522 154.57 77.7158 154.57 79.0756C154.57 80.4359 153.486 81.388 151.584 81.388H150Z" fill="black"/>
</svg>
