<svg width="276" height="182" viewBox="0 0 276 182" fill="none" xmlns="http://www.w3.org/2000/svg">
<path d="M68.0009 63H80.5829C85.6157 63 89.3625 63.5624 92.2541 64.9421C96.2696 66.8328 99 70.2058 99 75.367C99 79.6597 97.0729 82.9813 93.2177 85.1277C90.2195 86.8142 86.0965 87.6322 80.796 87.6322H79.0291V100H68V63H68.0009ZM81.0109 79.6605C83.4207 79.6605 85.0801 79.4562 85.99 78.9963C87.2741 78.3835 87.9709 77.2081 87.9709 75.573C87.9709 73.9378 87.2213 72.6599 85.8297 72.0461C84.8124 71.5863 83.4736 71.382 80.6894 71.382H79.0291V79.6614H81.01L81.0109 79.6605Z" fill="black"/>
<path d="M125.5 62C137.048 62 146 70.5737 146 81.4996C146 92.4254 137.048 101 125.5 101C113.951 101 105 92.4263 105 81.4996C105 70.5728 113.952 62 125.5 62ZM125.5 91.3289C130.903 91.3289 135.088 86.9892 135.088 81.4996C135.088 76.01 130.902 71.6711 125.5 71.6711C120.097 71.6711 115.912 76.01 115.912 81.4996C115.912 86.9892 120.098 91.3289 125.5 91.3289Z" fill="black"/>
<path d="M155 63H165.543V91.1077H181V100H155V63Z" fill="black"/>
<path d="M190 63H200.543V91.1077H216V100H190V63Z" fill="black"/>
<path d="M47.4158 102H59L57.4756 98.1065V98.1038L49.8605 78.6328L46.7039 70.5601L43.3565 62H32.6409L29.2926 70.5601L25.1632 81.1235L18.5235 98.1038V98.1065L17 102H28.5833L37.9996 78.0915L47.4158 102Z" fill="black"/>
<path d="M38 94C39.1046 94 40 92.8807 40 91.5C40 90.1193 39.1046 89 38 89C36.8954 89 36 90.1193 36 91.5C36 92.8807 36.8954 94 38 94Z" fill="black"/>
<path fill-rule="evenodd" clip-rule="evenodd" d="M41.9991 108.581C42.0626 112.96 38.7235 119.602 38.5718 119.893L38.0152 121L37.4506 119.889C37.2973 119.597 33.9638 112.634 34.0003 108.608C33.9979 107.693 34.1067 106.809 34.3116 106H41.6926C41.8887 106.79 41.9975 107.66 41.9999 108.582L41.9991 108.581Z" fill="black"/>
<path fill-rule="evenodd" clip-rule="evenodd" d="M240 62C229.524 62 221 70.5228 221 81C221 91.4772 229.523 100 240 100C250.476 100 259 91.4772 259 81C259 70.5228 250.476 62 240 62ZM240 97.4975C239.772 97.4975 239.545 97.4897 239.318 97.4802C245.854 94.8617 250.471 88.4713 250.471 80.9991C250.471 73.5269 245.854 67.1365 239.318 64.5181C239.545 64.5086 239.771 64.5008 240 64.5008C249.096 64.5008 256.498 71.9021 256.498 80.9983C256.498 90.0944 249.096 97.4957 240 97.4957V97.4975Z" fill="black"/>
<path d="M73.9708 107L74.0596 107.086L79 118.914L78.9112 119H77.9696L77.8808 118.914L76.4233 115.452H70.5767L69.1372 118.914L69.0484 119H68.0888L68 118.914L72.9404 107.086L73.0292 107H73.9708ZM71.0031 114.457H76.0149L73.509 108.32L71.0031 114.457Z" fill="black"/>
<path d="M85.1475 107C88.5481 107 91 109.657 91 113C91 116.343 88.5481 119 85.1475 119H82.079L82 118.914V107.086L82.079 107H85.1475ZM82.9327 118.005H85.147C87.8835 118.005 89.9398 115.794 89.9398 113C89.9398 110.205 87.8835 107.994 85.147 107.994H82.9327V118.005Z" fill="black"/>
<path d="M94.8864 107L94.9615 107.086L98.5076 117.628L102.054 107.086L102.129 107H102.925L103 107.086L98.9731 118.914L98.8981 119H98.1019L98.0269 118.914L94 107.086L94.0751 107H94.8864Z" fill="black"/>
<path d="M107.915 107L108 107.086V118.914L107.915 119H107.085L107 118.914V107.086L107.085 107H107.915Z" fill="black"/>
<path d="M116.336 109.203C115.809 108.463 115.216 108.003 114.294 108.003C113.305 108.003 112.515 108.776 112.515 109.795C112.515 111.981 118 111.949 118 115.466C118 117.422 116.418 119 114.459 119C112.812 119 111.576 118.096 111 116.617L111.692 116.107H111.856C112.35 117.34 113.305 117.997 114.459 117.997C115.843 117.997 116.897 116.896 116.897 115.465C116.897 112.835 111.428 112.901 111.428 109.794C111.428 108.249 112.697 107 114.294 107C115.612 107 116.6 107.74 117.177 108.726L116.501 109.203H116.336V109.203Z" fill="black"/>
<path d="M134 113C134 116.304 131.084 119 127.5 119C123.916 119 121 116.304 121 113C121 109.696 123.916 107 127.5 107C131.084 107 134 109.696 134 113ZM122.177 113C122.177 115.762 124.584 117.997 127.5 117.997C130.434 117.997 132.841 115.761 132.841 113C132.841 110.238 130.434 108.003 127.5 108.003C124.584 108.003 122.177 110.238 122.177 113Z" fill="black"/>
<path d="M140.292 107C142.922 107 144.578 108.286 144.578 110.257C144.578 112.075 142.824 113.086 141.266 113.343L146 118.914L145.903 119H144.636L144.539 118.914L139.903 113.497H138.149V118.914L138.052 119H137.097L137 118.914V107.086L137.097 107H140.292ZM138.149 112.503H140.097C141.753 112.503 143.273 111.817 143.273 110.257C143.273 108.817 142.162 107.994 140.293 107.994H138.15V112.503H138.149Z" fill="black"/>
<path d="M163.766 109.236C162.719 108.282 161.266 108.003 159.938 108.003C157.157 108.003 155.048 110.239 155.048 113.001C155.048 115.812 157.235 117.997 160.016 117.997C161.048 117.997 162.235 117.685 163.094 117.11V113.559H160.328L160.25 113.477V112.688L160.328 112.606H163.922L164 112.688V117.685C162.828 118.589 161.422 119 160.016 119C156.657 119 154 116.37 154 113C154 109.712 156.578 107 159.937 107C161.421 107 162.828 107.263 163.843 108.069V109.154L163.766 109.236Z" fill="black"/>
<path fill-rule="evenodd" clip-rule="evenodd" d="M163.673 109.154C163.547 109.046 163.415 108.947 163.278 108.857C163.107 108.744 162.929 108.644 162.745 108.557C161.871 108.141 160.873 108.003 159.938 108.003C159.938 108.003 159.938 108.003 159.938 108.003C157.158 108.004 155.048 110.239 155.048 113C155.048 113 155.048 113 155.048 113C155.048 115.811 157.235 117.997 160.016 117.997C160.015 117.997 160.016 117.997 160.016 117.997C160.972 117.997 162.062 117.729 162.901 117.231C162.967 117.192 163.031 117.152 163.094 117.11V113.559H160.328L160.25 113.477V112.688L160.328 112.606H163.922L164 112.688V117.685C163.873 117.783 163.742 117.876 163.61 117.963C162.523 118.674 161.269 119 160.016 119C160.016 119 160.016 119 160.016 119C156.657 119 154 116.37 154 113.001C154 113.001 154 113 154 113.001C154 109.713 156.578 107 159.937 107C159.937 107 159.937 107 159.937 107C161.421 107 162.828 107.263 163.843 108.069V109.154L163.766 109.236C163.735 109.208 163.704 109.18 163.673 109.154Z" fill="black"/>
<path d="M171.56 107C173.606 107 174.894 108.286 174.894 110.257C174.894 112.075 173.53 113.086 172.318 113.343L176 118.914L175.924 119H174.939L174.864 118.914L171.258 113.497H169.894V118.914L169.818 119H169.076L169 118.914V107.086L169.076 107H171.56ZM169.894 112.503H171.409C172.697 112.503 173.879 111.817 173.879 110.257C173.879 108.817 173.015 107.994 171.561 107.994H169.894V112.503H169.894Z" fill="black"/>
<path fill-rule="evenodd" clip-rule="evenodd" d="M169.894 107.994H171.56C173.015 107.994 173.879 108.817 173.879 110.257C173.879 110.257 173.879 110.257 173.879 110.257C173.879 111.503 173.125 112.191 172.165 112.418C172.08 112.438 171.994 112.454 171.906 112.467C171.744 112.491 171.577 112.503 171.409 112.503H169.894V107.994ZM169 107.086L169.076 107H171.56C171.56 107 171.561 107 171.56 107C173.605 107 174.894 108.285 174.894 110.257C174.894 110.257 174.894 110.257 174.894 110.257C174.894 111.547 174.207 112.431 173.374 112.928C173.081 113.102 172.771 113.229 172.466 113.308C172.416 113.321 172.367 113.332 172.318 113.343L176 118.914L175.924 119H174.939L174.864 118.914L171.258 113.497H169.894L169.894 118.914L169.818 119H169.076L169 118.914V107.086Z" fill="black"/>
<path d="M191 113C191 116.304 188.084 119 184.5 119C180.916 119 178 116.304 178 113C178 109.696 180.916 107 184.5 107C188.084 107.001 191 109.696 191 113ZM179.177 113C179.177 115.762 181.584 117.997 184.5 117.997C187.434 117.997 189.84 115.761 189.84 113C189.84 110.238 187.434 108.003 184.5 108.003C181.584 108.003 179.177 110.239 179.177 113Z" fill="black"/>
<path fill-rule="evenodd" clip-rule="evenodd" d="M184.5 108.003C181.584 108.003 179.177 110.239 179.177 113C179.177 115.762 181.584 117.997 184.5 117.997C187.434 117.997 189.84 115.761 189.84 113C189.84 110.238 187.434 108.003 184.5 108.003C184.5 108.003 184.5 108.003 184.5 108.003ZM184.5 119C188.084 119 191 116.304 191 113C191 109.696 188.084 107.001 184.5 107C184.5 107 184.5 107 184.5 107C180.916 107 178 109.696 178 113C178 116.304 180.916 119 184.5 119Z" fill="black"/>
<path d="M195.026 107L195.121 107.084V113.377C195.121 116.331 196.926 117.976 199.51 117.976C202.074 117.976 203.879 116.331 203.879 113.377V107.084L203.974 107H204.905L205 107.084V113.545C205 116.986 202.739 119 199.51 119C196.28 119 194 116.986 194 113.545V107.084L194.095 107H195.026Z" fill="black"/>
<path fill-rule="evenodd" clip-rule="evenodd" d="M195.121 107.084V113.377C195.121 113.434 195.121 113.49 195.123 113.545C195.19 116.393 196.975 117.976 199.51 117.976C202.025 117.976 203.81 116.393 203.877 113.545C203.879 113.49 203.879 113.434 203.879 113.377V107.084L203.974 107H204.905L205 107.084V113.545C205 116.986 202.739 119 199.51 119C196.28 119 194 116.986 194 113.545V107.084L194.095 107H195.026L195.121 107.084Z" fill="black"/>
<path d="M211.484 107C214.359 107 216 108.457 216 110.514C216 112.572 214.359 114.012 211.484 114.012H209.088V118.914L208.995 119H208.092L208 118.914V107.086L208.074 107H211.484ZM209.088 113.017H211.484C213.548 113.017 214.784 112.074 214.784 110.514C214.784 108.954 213.549 107.994 211.484 107.994H209.088V113.017Z" fill="black"/>
<path fill-rule="evenodd" clip-rule="evenodd" d="M209.088 113.017H211.484C213.548 113.017 214.784 112.074 214.784 110.514C214.784 108.954 213.549 107.994 211.484 107.994H209.088V113.017ZM209.088 114.012V118.914L208.995 119H208.092L208 118.914V107.086L208.074 107H211.484C214.359 107 216 108.457 216 110.514C216 112.572 214.359 114.012 211.484 114.012H209.088Z" fill="black"/>
</svg>
