<svg width="276" height="108" viewBox="0 0 276 108" fill="none" xmlns="http://www.w3.org/2000/svg">
<g clip-path="url(#clip0_901_712)">
<path d="M98.9532 64.9072C95.9042 64.4446 92.9293 67.3408 90.6124 72.6243C86.9332 81.0353 85.6357 92.5646 85.6357 102.576H86.9147C86.9147 92.5646 88.2028 81.0353 91.8913 72.6243C93.8746 68.081 96.3583 65.3051 98.9532 64.9072Z" fill="#585858"/>
<path fill-rule="evenodd" clip-rule="evenodd" d="M95.7744 66.0917C93.5038 67.6184 91.8264 70.8477 90.983 72.7816C87.2019 81.4332 86.0713 92.8052 86.0435 102.197H86.5254C86.5532 92.7034 87.6931 81.2389 91.5298 72.4855C92.3917 70.5239 93.8189 67.8035 95.7836 66.0917H95.7744Z" fill="white"/>
<path d="M115.144 102.577C115.144 92.4259 113.522 78.204 108.425 69.4506C102.994 60.1235 96.5436 62.3905 92.1879 71.5325C88.0361 80.2489 86.5718 92.2038 86.5718 102.577H88.1287C88.1287 94.3413 89.1667 85.042 91.706 77.7043V85.0697C92.0489 85.1345 92.3732 85.1993 92.6976 85.264V75.0672C92.9108 73.9291 95.2925 70.2093 95.793 69.5709V85.8748C96.0988 85.9303 96.4139 85.995 96.7197 86.0598V68.553C97.6187 67.6185 98.5825 66.98 99.5556 66.6284V87.2257C99.8429 87.2812 100.112 87.3367 100.399 87.3923V66.4156C101.242 66.2675 102.113 66.6932 102.994 67.017V88.114C103.244 88.0492 103.494 87.9844 103.763 87.9197V67.017C104.597 67.4704 105.394 68.1367 106.163 68.9879V88.5674C106.404 88.6137 106.636 88.6599 106.868 88.7062V69.8392C107.655 70.8756 108.388 72.1155 109.083 73.5219V89.0763C109.305 89.1226 109.527 89.1596 109.741 89.2059V74.9562C110.065 75.7427 111.65 79.9991 111.779 80.9984V89.7795C111.983 89.8166 112.187 89.8536 112.391 89.8998V83.4505C113.744 89.5112 114.365 96.1271 114.365 102.577H115.153H115.144Z" fill="#585858"/>
<path d="M10.448 102.576C11.0226 83.4317 15.888 61.6593 27.5836 47.6687C33.3295 40.7937 40.4562 36.2874 48.5561 37.6384C38.4915 39.3039 30.5585 49.6303 25.9433 58.9204L25.9618 58.4115C18.7239 70.7643 15.3042 87.6326 14.8501 102.586H10.4573L10.448 102.576Z" fill="#585858"/>
<path fill-rule="evenodd" clip-rule="evenodd" d="M42.2543 38.7579C36.7123 39.9608 32.023 43.9211 28.3994 48.2608C16.6203 62.3532 12.1997 84.0146 11.5232 101.586H13.8308C14.3869 87.2994 17.6305 70.5977 25.0445 57.9488L27.1204 54.3956V54.5992C30.6977 48.5014 35.8319 42.0983 42.2543 38.7579Z" fill="white"/>
<path d="M14.3408 102.576C14.3408 90.5288 16.0831 79.2586 19.1228 69.5429C22.0699 60.1511 26.231 52.5173 31.0965 46.9655C35.5727 41.6727 40.6328 38.3416 45.8318 37.1202C50.6695 35.9821 55.6184 36.639 60.4097 39.1559C64.8395 41.4784 68.7875 45.2259 72.1423 49.8524C75.3026 54.2106 78.018 59.4386 80.168 65.1569C82.2162 70.6162 83.8472 76.64 84.9223 82.9598C85.9695 89.1409 86.5626 95.7475 86.5626 102.576H84.9408C84.9408 97.2465 84.5701 92.0648 83.875 87.1607C83.1707 82.1826 82.1142 77.3987 80.789 72.948V82.5064C80.3441 82.4139 79.9085 82.3214 79.4822 82.2381V69.0062C79.2598 68.3955 79.0374 67.7848 78.815 67.1834C77.6936 64.2779 76.4332 61.5298 75.0524 59.0129V81.137C74.5797 81.0352 74.0885 80.9334 73.5974 80.8316V56.5331C72.0682 54.081 70.4093 51.8511 68.5929 49.8987V79.1846C68.0554 79.0735 67.5457 78.9625 66.9803 78.8515V48.2701C65.1824 46.5953 63.3475 45.7533 61.2994 44.6614C61.2994 50.2595 61.3086 55.8576 61.3086 61.4465V78.2315C60.7062 77.9262 60.0946 77.6208 59.4922 77.297V43.218C57.3328 42.2834 55.2013 41.7745 53.042 41.6357V75.946C52.3284 75.798 51.6148 75.6499 50.9197 75.5019V41.6357C48.4546 41.8022 45.9338 42.4777 43.5706 43.6899V73.9936C42.7458 73.8178 41.921 73.6513 41.0869 73.4754V45.0686C38.5939 46.7064 36.1844 48.9178 33.8953 51.6475C33.4319 52.2397 32.95 52.8504 32.5144 53.4981C32.5144 59.5681 32.5051 65.6289 32.5051 71.6896C31.5877 71.4953 30.6516 71.301 29.6693 71.0974V57.847C26.4627 63.2508 23.8956 69.8482 22.0328 77.3617C20.1145 85.0603 19.0858 93.6008 19.0858 102.576H14.3223H14.3408Z" fill="#585858"/>
<path fill-rule="evenodd" clip-rule="evenodd" d="M130.88 93.129H121.353L1.32888 76.7418L0.893311 76.2514V71.4213L1.36595 70.9217L33.756 69.1729L33.9042 69.1821L131.009 91.4449L131.38 91.9261V92.6293L130.88 93.129Z" fill="#585858"/>
<path fill-rule="evenodd" clip-rule="evenodd" d="M32.9403 75.8998L1.74585 75.9923V71.5879L32.9403 70.2277V75.8998Z" fill="white"/>
<path fill-rule="evenodd" clip-rule="evenodd" d="M34.1267 70.4221L130.898 91.8985V92.5092L34.1267 76.3071V70.4221Z" fill="white"/>
<path fill-rule="evenodd" clip-rule="evenodd" d="M33.7466 74.4193L131.046 92.3147L130.861 92.3332L33.5613 75.1225L33.7466 74.4193Z" fill="#585858"/>
<path fill-rule="evenodd" clip-rule="evenodd" d="M33.7466 72.3466L131.046 92.0741L131.028 92.1758L33.7188 73.1238L33.7466 72.3466Z" fill="#585858"/>
<path d="M116.339 63.5285C113.29 63.0473 110.306 66.0546 107.998 71.5324C104.319 80.2488 103.021 92.2037 103.021 102.576H104.3C104.3 92.1945 105.588 80.2488 109.277 71.5324C111.269 66.8226 113.744 63.9449 116.339 63.5285Z" fill="#585858"/>
<path fill-rule="evenodd" clip-rule="evenodd" d="M113.16 64.7499C110.89 66.3321 109.212 69.6818 108.369 71.6897C104.578 80.6559 103.457 92.4443 103.429 102.178H103.911C103.939 92.3332 105.088 80.4523 108.916 71.3751C109.777 69.3394 111.205 66.5265 113.169 64.7499H113.16Z" fill="white"/>
<path d="M129.415 102.577C129.415 92.4259 127.979 78.204 123.466 69.4506C118.656 60.1235 112.947 62.3905 109.092 71.5325C105.412 80.2489 104.115 92.2038 104.115 102.577H105.496C105.496 94.3413 106.413 85.042 108.665 77.7043V86.652C108.962 86.7168 109.258 86.7815 109.546 86.8463V75.0672C109.74 73.9291 111.844 70.2093 112.289 69.5709V87.457C112.558 87.5218 112.845 87.5773 113.114 87.6421V68.553C113.911 67.6185 114.763 66.98 115.625 66.6284V88.2528C115.875 88.3083 116.116 88.3638 116.376 88.4193V66.4156C117.117 66.2675 117.896 66.6932 118.674 67.017V88.993L119.351 89.0208V67.0355C120.083 67.4889 120.797 68.1552 121.473 69.0064V89.6222C121.686 89.6685 121.89 89.7148 122.094 89.761V69.8577C122.789 70.8941 123.438 72.134 124.049 73.5404V90.1589C124.244 90.2052 124.448 90.2422 124.633 90.2885V74.9839C124.921 75.7704 126.32 80.0268 126.44 81.0262V90.6493C126.626 90.6863 126.802 90.7233 126.978 90.7696V83.4782C128.173 89.539 128.72 96.1549 128.72 102.604H129.415V102.577Z" fill="#585858"/>
<path d="M40.1692 102.576C40.1692 90.5288 41.7076 79.2586 44.4044 69.5429C47.0086 60.1511 50.6971 52.5173 55.0065 46.9655C58.973 41.6727 63.4492 38.3416 68.0552 37.1202C72.3368 35.9821 76.7203 36.639 80.9648 39.1559C84.8943 41.4784 88.3881 45.2259 91.3537 49.8524C94.1525 54.2106 96.5621 59.4386 98.4619 65.1569C100.278 70.6162 101.715 76.64 102.669 82.9598C103.596 89.1409 104.124 95.7475 104.124 102.576H102.688C102.688 97.2465 102.364 92.0648 101.752 87.1607C101.122 82.1826 100.186 77.3987 99.018 72.948V84.394C98.6195 84.3015 98.2395 84.209 97.8688 84.1257V69.0062C97.6742 68.3955 97.4703 67.7848 97.2757 67.1834C96.2841 64.2779 95.1627 61.5298 93.9394 59.0129V83.3392C93.5223 83.2374 93.0868 83.1356 92.6512 83.0338V56.5424C91.2981 54.0903 89.8339 51.8603 88.2213 49.9079V82.0993C87.7487 81.9883 87.2946 81.8772 86.7941 81.7662V48.2701C85.2094 46.5953 83.5783 45.7533 81.7618 44.6614C81.7618 55.8484 81.7711 69.4781 81.7711 80.6743C81.2336 80.369 80.6961 80.5355 80.1586 80.2209V43.218C78.2495 42.2834 76.3589 41.7745 74.4498 41.6357V79.1013C73.8196 78.9532 73.1894 78.8052 72.5685 78.6572V41.6357C70.3906 41.8022 68.1571 42.4777 66.0627 43.6899C66.0627 53.7942 66.1646 67.2852 66.1646 77.3802C65.4325 77.2044 64.7003 77.0379 63.9682 76.8621C63.9682 67.3962 63.8662 54.5344 63.8662 45.0686C61.6606 46.7064 59.5198 48.9178 57.4995 51.6475C57.0917 52.2397 56.6654 52.8504 56.2761 53.4981C56.2761 59.5681 56.3688 69.0247 56.3688 75.0855C55.5533 74.8912 54.7285 74.6968 53.8573 74.4933C53.8573 70.0796 53.7554 62.27 53.7554 57.8563C50.9195 63.2601 48.649 69.8575 46.9901 77.371C45.2941 85.0695 44.3859 93.6101 44.3859 102.586H40.1692V102.576Z" fill="#585858"/>
<path d="M37.083 102.576C37.083 83.1912 41.1144 61.1412 51.9203 46.9655C57.2306 40.0072 63.931 35.4455 71.7343 36.8149C62.1331 38.5082 54.8303 48.9642 50.6692 58.3653V57.8471C44.0893 70.3572 41.2997 87.4383 41.2997 102.576H37.083Z" fill="#585858"/>
<path fill-rule="evenodd" clip-rule="evenodd" d="M65.729 37.9531C60.4558 39.1653 56.0722 43.1811 52.7174 47.5763C41.8281 61.8538 38.2137 83.7835 38.084 101.577H40.2897C40.4009 87.1053 43.0328 70.2 49.7703 57.3845L51.6609 53.7943V54.0072C54.9138 47.8261 59.6588 41.3397 65.7197 37.9624L65.729 37.9531Z" fill="white"/>
</g>
<path d="M156.176 16.612C155.439 16.0129 154.702 15.5752 153.965 15.2987C153.227 14.9992 152.513 14.8494 151.822 14.8494C150.946 14.8494 150.232 15.0568 149.679 15.4715C149.126 15.8862 148.85 16.4276 148.85 17.0958C148.85 17.5566 148.988 17.9368 149.265 18.2363C149.541 18.5358 149.898 18.8007 150.336 19.0311C150.797 19.2385 151.304 19.4228 151.856 19.5841C152.432 19.7454 152.997 19.9182 153.55 20.1025C155.762 20.8398 157.375 21.8305 158.388 23.0746C159.425 24.2958 159.943 25.897 159.943 27.8784C159.943 29.2148 159.713 30.4244 159.252 31.5072C158.815 32.5901 158.158 33.5232 157.282 34.3066C156.43 35.0669 155.37 35.6544 154.103 36.0691C152.859 36.5069 151.442 36.7258 149.852 36.7258C146.557 36.7258 143.505 35.7466 140.694 33.7882L143.597 28.3277C144.61 29.2263 145.613 29.8944 146.603 30.3322C147.594 30.77 148.573 30.9888 149.541 30.9888C150.647 30.9888 151.465 30.7354 151.995 30.2285C152.548 29.7216 152.824 29.1456 152.824 28.5005C152.824 28.1088 152.755 27.7748 152.617 27.4983C152.479 27.1988 152.248 26.9338 151.926 26.7034C151.603 26.45 151.177 26.2196 150.647 26.0122C150.14 25.8049 149.518 25.5745 148.781 25.321C147.905 25.0445 147.041 24.745 146.189 24.4225C145.359 24.0769 144.61 23.6276 143.942 23.0746C143.297 22.5217 142.767 21.8305 142.353 21.0011C141.961 20.1486 141.765 19.0772 141.765 17.787C141.765 16.4968 141.972 15.3332 142.387 14.2965C142.825 13.2366 143.424 12.3381 144.184 11.6008C144.968 10.8405 145.912 10.253 147.018 9.83824C148.147 9.42352 149.403 9.21616 150.785 9.21616C152.075 9.21616 153.423 9.40048 154.829 9.76912C156.234 10.1147 157.582 10.6331 158.872 11.3243L156.176 16.612ZM183.595 15.6788V36H176.821V15.6788H171.257V9.94192H189.159V15.6788H183.595ZM216.329 15.6788H208.277V20.0334H215.88V25.7703H208.277V30.2631H216.329V36H201.503V9.94192H216.329V15.6788ZM245.37 15.6788H237.318V20.0334H244.921V25.7703H237.318V30.2631H245.37V36H230.544V9.94192H245.37V15.6788ZM266.359 9.94192V30.2631H274.481V36H259.585V9.94192H266.359Z" fill="black"/>
<path d="M144.364 91.2792V103.189H141.268V91.2792H144.364ZM151.117 103.189V91.2792H154.212L159.93 98.5608V91.2792H163.01V103.189H159.93L154.212 95.9072V103.189H151.117ZM176.312 94.3277C175.975 94.0539 175.638 93.8539 175.301 93.7275C174.964 93.5906 174.638 93.5222 174.322 93.5222C173.922 93.5222 173.595 93.6169 173.343 93.8065C173.09 93.996 172.964 94.2435 172.964 94.5488C172.964 94.7594 173.027 94.9332 173.153 95.0701C173.279 95.207 173.443 95.3281 173.643 95.4334C173.853 95.5282 174.085 95.6124 174.338 95.6861C174.601 95.7598 174.859 95.8388 175.112 95.923C176.123 96.26 176.86 96.7128 177.323 97.2814C177.797 97.8395 178.034 98.5714 178.034 99.477C178.034 100.088 177.929 100.641 177.718 101.135C177.518 101.63 177.218 102.057 176.818 102.415C176.428 102.762 175.944 103.031 175.364 103.22C174.796 103.421 174.148 103.521 173.422 103.521C171.916 103.521 170.521 103.073 169.236 102.178L170.563 99.6823C171.026 100.093 171.484 100.398 171.937 100.598C172.39 100.798 172.837 100.899 173.279 100.899C173.785 100.899 174.159 100.783 174.401 100.551C174.654 100.319 174.78 100.056 174.78 99.7613C174.78 99.5823 174.748 99.4296 174.685 99.3032C174.622 99.1663 174.517 99.0452 174.369 98.9399C174.222 98.8241 174.027 98.7188 173.785 98.624C173.553 98.5292 173.269 98.4239 172.932 98.3081C172.532 98.1818 172.137 98.0449 171.747 97.8974C171.368 97.7395 171.026 97.5341 170.721 97.2814C170.426 97.0287 170.184 96.7128 169.994 96.3337C169.815 95.9441 169.726 95.4544 169.726 94.8648C169.726 94.2751 169.82 93.7433 170.01 93.2694C170.21 92.785 170.484 92.3744 170.831 92.0374C171.189 91.6899 171.621 91.4214 172.126 91.2318C172.642 91.0423 173.216 90.9475 173.848 90.9475C174.438 90.9475 175.054 91.0318 175.696 91.2003C176.338 91.3582 176.954 91.5951 177.544 91.911L176.312 94.3277ZM187.345 91.2792V97.7553C187.345 98.1028 187.355 98.4608 187.376 98.8294C187.408 99.1874 187.487 99.5138 187.613 99.8087C187.75 100.104 187.961 100.346 188.245 100.535C188.53 100.714 188.93 100.804 189.446 100.804C189.962 100.804 190.356 100.714 190.63 100.535C190.915 100.346 191.125 100.104 191.262 99.8087C191.399 99.5138 191.478 99.1874 191.499 98.8294C191.531 98.4608 191.546 98.1028 191.546 97.7553V91.2792H194.626V98.1818C194.626 100.035 194.2 101.388 193.347 102.241C192.505 103.094 191.204 103.521 189.446 103.521C187.687 103.521 186.381 103.094 185.528 102.241C184.675 101.388 184.249 100.035 184.249 98.1818V91.2792H187.345ZM204.489 96.6022H205.074C205.685 96.6022 206.153 96.4759 206.48 96.2231C206.806 95.9704 206.969 95.6071 206.969 95.1333C206.969 94.6594 206.806 94.2961 206.48 94.0434C206.153 93.7907 205.685 93.6643 205.074 93.6643H204.489V96.6022ZM211.297 103.189H207.443L204.489 98.6082V103.189H201.394V91.2792H206.211C206.875 91.2792 207.454 91.3793 207.949 91.5793C208.444 91.7689 208.849 92.0321 209.165 92.3691C209.491 92.7061 209.734 93.0957 209.891 93.538C210.06 93.9802 210.144 94.4541 210.144 94.9595C210.144 95.8651 209.923 96.6022 209.481 97.1709C209.049 97.729 208.407 98.108 207.554 98.3081L211.297 103.189ZM223.333 98.7662L221.943 94.8016L220.553 98.7662H223.333ZM224.154 101.12H219.732L219.021 103.189H215.72L220.253 91.2792H223.633L228.166 103.189H224.865L224.154 101.12ZM233.786 103.189V91.2792H236.881L242.599 98.5608V91.2792H245.679V103.189H242.599L236.881 95.9072V103.189H233.786ZM261.173 95.2596C260.457 94.3856 259.572 93.9486 258.519 93.9486C258.056 93.9486 257.624 94.0329 257.224 94.2014C256.835 94.3698 256.498 94.6015 256.213 94.8963C255.929 95.1807 255.703 95.5229 255.534 95.923C255.376 96.3232 255.297 96.7549 255.297 97.2182C255.297 97.6921 255.376 98.1291 255.534 98.5292C255.703 98.9294 255.929 99.2769 256.213 99.5717C256.508 99.8666 256.85 100.098 257.24 100.267C257.63 100.435 258.051 100.519 258.504 100.519C259.493 100.519 260.383 100.098 261.173 99.2558V102.92L260.857 103.031C260.383 103.199 259.941 103.32 259.53 103.394C259.12 103.478 258.714 103.521 258.314 103.521C257.493 103.521 256.703 103.368 255.945 103.062C255.197 102.747 254.534 102.31 253.955 101.751C253.386 101.183 252.928 100.514 252.58 99.7455C252.233 98.9662 252.059 98.1186 252.059 97.2024C252.059 96.2863 252.228 95.4492 252.565 94.691C252.912 93.9223 253.37 93.2642 253.939 92.7166C254.518 92.1585 255.187 91.7268 255.945 91.4214C256.703 91.1055 257.498 90.9475 258.33 90.9475C258.804 90.9475 259.267 91.0002 259.72 91.1055C260.183 91.2003 260.667 91.3529 261.173 91.5635V95.2596ZM274.172 93.9012H270.492V95.8914H273.967V98.5135H270.492V100.567H274.172V103.189H267.396V91.2792H274.172V93.9012Z" fill="black"/>
<path d="M160.497 59.4293C158.93 57.517 156.995 56.5608 154.691 56.5608C153.677 56.5608 152.733 56.7452 151.857 57.1138C151.005 57.4824 150.267 57.9893 149.645 58.6344C149.023 59.2565 148.528 60.0053 148.159 60.8808C147.814 61.7563 147.641 62.701 147.641 63.7147C147.641 64.7515 147.814 65.7077 148.159 66.5832C148.528 67.4587 149.023 68.219 149.645 68.8641C150.29 69.5092 151.039 70.0161 151.892 70.3848C152.744 70.7534 153.666 70.9377 154.656 70.9377C156.822 70.9377 158.769 70.0161 160.497 68.1729V76.1908L159.806 76.4327C158.769 76.8014 157.801 77.0663 156.903 77.2276C156.004 77.4119 155.117 77.5041 154.242 77.5041C152.445 77.5041 150.717 77.17 149.058 76.5018C147.422 75.8106 145.97 74.8545 144.703 73.6334C143.459 72.3892 142.457 70.9262 141.697 69.2443C140.936 67.5393 140.556 65.6846 140.556 63.6802C140.556 61.6757 140.925 59.844 141.662 58.1852C142.422 56.5032 143.425 55.0633 144.669 53.8652C145.936 52.6441 147.399 51.6994 149.058 51.0313C150.717 50.3401 152.456 49.9945 154.276 49.9945C155.313 49.9945 156.327 50.1097 157.318 50.3401C158.331 50.5474 159.391 50.8815 160.497 51.3423V59.4293ZM180.887 50.7202V76.7783H174.113V50.7202H180.887ZM205.546 56.4572V76.7783H198.772V56.4572H193.208V50.7202H211.11V56.4572H205.546ZM231.432 64.2677L221.928 50.7202H230.015L234.853 57.8396L239.657 50.7202H247.744L238.205 64.2677V76.7783H231.432V64.2677Z" fill="black"/>
<defs>
<clipPath id="clip0_901_712">
<rect width="130.487" height="66.002" fill="white" transform="translate(0.893311 36.5743)"/>
</clipPath>
</defs>
</svg>
